<svg width="183" height="160" viewBox="0 0 183 160" fill="none" xmlns="http://www.w3.org/2000/svg">
<path d="M56.9728 139.615H125.95L160.438 79.8793L125.95 20.1436H56.9728L22.4844 79.8793L56.9728 139.615Z" fill="#11C6FF"/>
<path d="M134.693 159.759H48.2294C47.352 159.757 46.4903 159.526 45.7304 159.087C44.9705 158.648 44.3391 158.018 43.8992 157.259L0.667587 82.3789C0.230185 81.6183 0 80.7563 0 79.8789C0 79.0015 0.230185 78.1395 0.667587 77.3789L43.8993 2.5C44.3392 1.74084 44.9706 1.11043 45.7304 0.671722C46.4903 0.23302 47.352 0.00139483 48.2294 0H134.693C135.57 0.00137846 136.432 0.232987 137.192 0.671692C137.951 1.1104 138.583 1.74083 139.023 2.5L182.254 77.3789C182.692 78.1394 182.922 79.0015 182.922 79.8789C182.922 80.7563 182.692 81.6184 182.254 82.3789L139.023 157.259C138.583 158.018 137.951 158.648 137.191 159.087C136.432 159.526 135.57 159.757 134.693 159.759ZM48.2294 2.00005C47.7029 2.00088 47.1859 2.13984 46.73 2.40306C46.2741 2.66628 45.8952 3.04455 45.6312 3.50005L2.39966 78.379C2.13722 78.8353 1.99909 79.3525 1.99911 79.879C1.99914 80.4054 2.13729 80.9226 2.39977 81.379L45.6312 156.259C45.8952 156.714 46.2741 157.093 46.73 157.356C47.1859 157.619 47.7029 157.758 48.2294 157.759H134.693C135.219 157.758 135.736 157.619 136.192 157.356C136.648 157.093 137.027 156.714 137.29 156.259L180.522 81.3789C180.785 80.9226 180.923 80.4053 180.923 79.8789C180.923 79.3525 180.785 78.8352 180.522 78.3789L137.29 3.5C137.027 3.0445 136.648 2.66624 136.192 2.40302C135.736 2.13979 135.219 2.00082 134.693 2L48.2294 2.00005Z" fill="#CCCCCC"/>
<path d="M61 50C124.964 50 110.098 92.4955 110.165 99.058L121 110H117.518L108.089 100.464C102.866 101.027 91.4286 105.085 79.375 95.5089C67.2946 85.933 67.9643 74.4687 61 50ZM71.6741 56.1607C65.0179 53.0134 70.9777 57.3929 70.9777 57.3929C77.0312 61.5714 79.817 67.2634 83.058 73.4509C87.2768 81.5134 93.6384 92.1607 102.371 95.9107C111.076 99.6607 106.951 97.5848 103.174 94.7723C99.3973 91.933 94.0402 83.1205 90.9866 77.3348C86.7411 69.2991 82.817 61.4509 71.6741 56.1607V56.1607Z" fill="white"/>
</svg>
