<svg width="400" height="400" viewBox="0 0 400 400" fill="none" xmlns="http://www.w3.org/2000/svg">
<rect width="400" height="400" rx="117" fill="#2AC898"/>
<path d="M100 100C313.214 100 263.661 241.652 263.884 263.527L300 300H288.393L256.964 268.214C239.554 270.089 201.429 283.616 161.25 251.696C120.982 219.777 123.214 181.562 100 100ZM135.58 120.536C113.393 110.045 133.259 124.643 133.259 124.643C153.437 138.571 162.723 157.545 173.527 178.17C187.589 205.045 208.795 240.536 237.902 253.036C266.92 265.536 253.17 258.616 240.58 249.241C227.991 239.777 210.134 210.402 199.955 191.116C185.804 164.33 172.723 138.17 135.58 120.536V120.536Z" fill="white"/>
</svg>
